<?xml version="1.0" encoding="UTF-8" standalone="no"?><!DOCTYPE svg PUBLIC "-//W3C//DTD SVG 1.1//EN" "http://www.w3.org/Graphics/SVG/1.1/DTD/svg11.dtd"><svg width="100%" height="100%" viewBox="0 0 341 114" version="1.1" xmlns="http://www.w3.org/2000/svg" xmlns:xlink="http://www.w3.org/1999/xlink" xml:space="preserve" xmlns:serif="http://www.serif.com/" style="fill-rule:evenodd;clip-rule:evenodd;stroke-linecap:round;stroke-linejoin:round;stroke-miterlimit:10;"><g id="Layer-1" serif:id="Layer 1"><path d="M66.278,66.278c3.354,-3.426 5.764,-6.995 7.227,-10.707c1.462,-3.71 2.195,-7.28 2.195,-10.707c0,-1.427 -0.286,-2.141 -0.857,-2.141c-0.357,0 -0.553,0.25 -0.588,0.749c-0.037,0.5 -0.126,1.392 -0.268,2.677c-0.358,2.5 -0.91,4.712 -1.66,6.638c-0.749,1.928 -1.606,3.641 -2.57,5.14c-0.963,1.499 -1.91,2.784 -2.837,3.854c-0.929,1.071 -1.713,1.927 -2.355,2.571c-0.642,0.642 -1.499,1.444 -2.57,2.408c-1.071,0.964 -2.339,1.911 -3.801,2.837c-1.464,0.929 -3.159,1.786 -5.086,2.57c-1.927,0.787 -4.106,1.358 -6.531,1.713c-1.071,0.145 -1.965,0.269 -2.677,0.376c-0.714,0.106 -1.071,0.267 -1.071,0.481c0,0.144 0.178,0.321 0.535,0.536c0.357,0.213 1.034,0.32 2.035,0.32c3.354,0 6.834,-0.749 10.44,-2.248c3.603,-1.498 7.083,-3.855 10.439,-7.067m-26.233,-58.247c4.139,0 8.084,0.893 11.832,2.677c3.747,1.785 7.013,4.176 9.797,7.174c2.784,2.998 4.996,6.423 6.638,10.279c1.641,3.855 2.463,7.852 2.463,11.992c0,4.068 -0.875,7.942 -2.623,11.617c-1.75,3.677 -4.053,6.925 -6.907,9.743c-2.856,2.822 -6.121,5.07 -9.797,6.746c-3.677,1.678 -7.478,2.517 -11.403,2.517c-4.213,0 -8.245,-0.804 -12.1,-2.41c-3.854,-1.606 -7.263,-3.801 -10.224,-6.585c-2.964,-2.783 -5.319,-6.03 -7.068,-9.743c-1.749,-3.711 -2.622,-7.672 -2.622,-11.885c0,4.283 0.856,8.369 2.569,12.26c1.714,3.891 4.032,7.299 6.96,10.224c2.926,2.929 6.334,5.247 10.225,6.96c3.89,1.715 7.977,2.57 12.26,2.57c4.353,0 8.475,-0.837 12.367,-2.516c3.889,-1.676 7.298,-3.961 10.225,-6.852c2.927,-2.892 5.247,-6.281 6.96,-10.172c1.713,-3.89 2.57,-8.048 2.57,-12.474c0,-4.283 -0.857,-8.369 -2.57,-12.26c-1.713,-3.889 -4.015,-7.297 -6.906,-10.225c-2.891,-2.926 -6.3,-5.263 -10.226,-7.014c-3.926,-1.748 -8.067,-2.623 -12.42,-2.623m-26.233,4.818c-1.857,1.858 -3.463,3.908 -4.818,6.158c-1.357,2.248 -2.481,4.533 -3.372,6.851c-0.894,2.321 -1.553,4.642 -1.982,6.96c-0.427,2.321 -0.642,4.481 -0.642,6.478c0,1.071 0.053,2.213 0.161,3.427c0.107,1.214 0.267,2.355 0.481,3.426c0.215,1.071 0.446,1.946 0.697,2.624c0.249,0.678 0.552,1.017 0.909,1.017c0.215,0 0.322,-0.178 0.322,-0.535c0,-0.286 -0.037,-0.733 -0.107,-1.34c-0.072,-0.605 -0.144,-1.266 -0.215,-1.981c-0.071,-0.713 -0.144,-1.427 -0.213,-2.14c-0.072,-0.714 -0.108,-1.356 -0.108,-1.928c0,-3.783 0.445,-7.209 1.339,-10.279c0.891,-3.069 1.944,-5.729 3.159,-7.977c1.212,-2.249 2.425,-4.103 3.64,-5.567c1.213,-1.463 2.141,-2.517 2.784,-3.159c0.642,-0.642 1.695,-1.517 3.158,-2.624c1.462,-1.106 3.336,-2.211 5.622,-3.319c2.283,-1.105 4.96,-2.07 8.03,-2.89c3.068,-0.821 6.495,-1.232 10.279,-1.232c0.642,0 1.374,0.018 2.195,0.053c0.82,0.038 1.606,0.091 2.355,0.161c0.75,0.072 1.393,0.125 1.928,0.161c0.535,0.036 0.766,0.053 0.696,0.053c0.428,0 0.642,-0.07 0.642,-0.214c0,-0.285 -0.339,-0.552 -1.017,-0.803c-0.679,-0.249 -1.536,-0.482 -2.569,-0.696c-1.036,-0.214 -2.16,-0.375 -3.373,-0.482c-1.215,-0.107 -2.356,-0.16 -3.426,-0.16c-2.072,0 -4.267,0.178 -6.586,0.535c-2.32,0.359 -4.657,0.929 -7.013,1.713c-2.356,0.787 -4.64,1.803 -6.852,3.053c-2.214,1.249 -4.213,2.766 -5.996,4.549l-0.108,0.107Zm54.5,-1.071c3.997,3.928 6.977,8.353 8.941,13.278c1.962,4.925 2.944,9.957 2.944,15.097c0,5.425 -1.071,10.564 -3.212,15.418c-2.142,4.856 -5.051,9.101 -8.726,12.742c-3.678,3.641 -7.942,6.531 -12.796,8.673c-4.854,2.141 -9.994,3.212 -15.418,3.212c-5.354,0 -10.458,-1.071 -15.311,-3.212c-4.855,-2.142 -9.12,-5.032 -12.795,-8.673c-3.678,-3.641 -6.585,-7.886 -8.726,-12.742c-2.142,-4.854 -3.213,-9.993 -3.213,-15.418c0,-5.354 1.071,-10.456 3.213,-15.312c2.141,-4.852 5.031,-9.117 8.672,-12.794c3.64,-3.676 7.887,-6.602 12.742,-8.781c4.853,-2.177 9.992,-3.266 15.418,-3.266c5.139,0 10.172,0.983 15.097,2.945c4.926,1.965 9.316,4.909 13.17,8.833" style="fill:#231f20;fill-rule:nonzero;"/><path d="M152.899,66.278c3.354,-3.426 5.763,-6.995 7.227,-10.707c1.462,-3.71 2.194,-7.28 2.194,-10.707c0,-1.427 -0.285,-2.141 -0.855,-2.141c-0.358,0 -0.554,0.25 -0.589,0.749c-0.038,0.5 -0.126,1.392 -0.269,2.677c-0.357,2.5 -0.91,4.712 -1.659,6.638c-0.749,1.928 -1.606,3.641 -2.57,5.14c-0.964,1.499 -1.91,2.784 -2.837,3.854c-0.929,1.071 -1.713,1.927 -2.355,2.571c-0.643,0.642 -1.499,1.444 -2.57,2.408c-1.071,0.964 -2.34,1.911 -3.801,2.837c-1.464,0.929 -3.159,1.786 -5.087,2.57c-1.926,0.787 -4.105,1.358 -6.531,1.713c-1.07,0.145 -1.964,0.269 -2.676,0.376c-0.715,0.106 -1.071,0.267 -1.071,0.481c0,0.144 0.177,0.321 0.535,0.536c0.356,0.213 1.034,0.32 2.034,0.32c3.355,0 6.834,-0.749 10.44,-2.248c3.604,-1.498 7.083,-3.855 10.44,-7.067m-26.233,-58.247c4.139,0 8.084,0.893 11.831,2.677c3.748,1.785 7.013,4.176 9.797,7.174c2.784,2.998 4.996,6.423 6.64,10.279c1.641,3.855 2.462,7.852 2.462,11.992c0,4.068 -0.876,7.942 -2.624,11.617c-1.749,3.677 -4.051,6.925 -6.906,9.743c-2.856,2.822 -6.121,5.07 -9.797,6.746c-3.677,1.678 -7.478,2.517 -11.403,2.517c-4.213,0 -8.245,-0.804 -12.1,-2.41c-3.854,-1.606 -7.264,-3.801 -10.225,-6.585c-2.963,-2.783 -5.318,-6.03 -7.067,-9.743c-1.749,-3.711 -2.623,-7.672 -2.623,-11.885c0,4.283 0.857,8.369 2.57,12.26c1.713,3.891 4.032,7.299 6.96,10.224c2.926,2.929 6.334,5.247 10.225,6.96c3.889,1.715 7.976,2.57 12.26,2.57c4.353,0 8.475,-0.837 12.367,-2.516c3.889,-1.676 7.297,-3.961 10.225,-6.852c2.926,-2.892 5.247,-6.281 6.96,-10.172c1.713,-3.89 2.57,-8.048 2.57,-12.474c0,-4.283 -0.857,-8.369 -2.57,-12.26c-1.713,-3.889 -4.016,-7.297 -6.906,-10.225c-2.891,-2.926 -6.301,-5.263 -10.226,-7.014c-3.926,-1.748 -8.067,-2.623 -12.42,-2.623m-26.233,4.818c-1.857,1.858 -3.463,3.908 -4.818,6.158c-1.357,2.248 -2.481,4.533 -3.373,6.851c-0.893,2.321 -1.552,4.642 -1.981,6.96c-0.428,2.321 -0.642,4.481 -0.642,6.478c0,1.071 0.053,2.213 0.161,3.427c0.106,1.214 0.267,2.355 0.481,3.426c0.214,1.071 0.446,1.946 0.696,2.624c0.25,0.678 0.552,1.017 0.91,1.017c0.215,0 0.322,-0.178 0.322,-0.535c0,-0.286 -0.037,-0.733 -0.107,-1.34c-0.072,-0.605 -0.144,-1.266 -0.215,-1.981c-0.072,-0.713 -0.144,-1.427 -0.214,-2.14c-0.072,-0.714 -0.107,-1.356 -0.107,-1.928c0,-3.783 0.445,-7.209 1.338,-10.279c0.892,-3.069 1.945,-5.729 3.159,-7.977c1.213,-2.249 2.426,-4.103 3.64,-5.567c1.214,-1.463 2.142,-2.517 2.785,-3.159c0.642,-0.642 1.694,-1.517 3.158,-2.624c1.462,-1.106 3.336,-2.211 5.621,-3.319c2.284,-1.105 4.961,-2.07 8.031,-2.89c3.068,-0.821 6.495,-1.232 10.279,-1.232c0.642,0 1.373,0.018 2.195,0.053c0.82,0.038 1.606,0.091 2.355,0.161c0.75,0.072 1.392,0.125 1.928,0.161c0.535,0.036 0.766,0.053 0.696,0.053c0.428,0 0.642,-0.07 0.642,-0.214c0,-0.285 -0.339,-0.552 -1.017,-0.803c-0.68,-0.249 -1.536,-0.482 -2.57,-0.696c-1.035,-0.214 -2.159,-0.375 -3.373,-0.482c-1.215,-0.107 -2.355,-0.16 -3.426,-0.16c-2.071,0 -4.266,0.178 -6.585,0.535c-2.32,0.359 -4.657,0.929 -7.013,1.713c-2.356,0.787 -4.641,1.803 -6.853,3.053c-2.213,1.249 -4.212,2.766 -5.995,4.549l-0.108,0.107Zm54.501,-1.071c3.996,3.928 6.975,8.353 8.939,13.278c1.964,4.925 2.945,9.957 2.945,15.097c0,5.425 -1.07,10.564 -3.212,15.418c-2.141,4.856 -5.051,9.101 -8.727,12.742c-3.677,3.641 -7.941,6.531 -12.794,8.673c-4.856,2.141 -9.995,3.212 -15.419,3.212c-5.354,0 -10.458,-1.071 -15.311,-3.212c-4.856,-2.142 -9.12,-5.032 -12.796,-8.673c-3.677,-3.641 -6.584,-7.886 -8.726,-12.742c-2.142,-4.854 -3.212,-9.993 -3.212,-15.418c0,-5.354 1.07,-10.456 3.212,-15.312c2.142,-4.852 5.032,-9.117 8.673,-12.794c3.64,-3.676 7.887,-6.602 12.741,-8.781c4.854,-2.177 9.993,-3.266 15.419,-3.266c5.139,0 10.171,0.983 15.097,2.945c4.925,1.965 9.315,4.909 13.171,8.833" style="fill:#231f20;fill-rule:nonzero;"/><path d="M239.519,66.278c3.354,-3.426 5.763,-6.995 7.227,-10.707c1.462,-3.71 2.195,-7.28 2.195,-10.707c0,-1.427 -0.285,-2.141 -0.857,-2.141c-0.357,0 -0.552,0.25 -0.587,0.749c-0.039,0.5 -0.127,1.392 -0.269,2.677c-0.358,2.5 -0.911,4.712 -1.66,6.638c-0.749,1.928 -1.606,3.641 -2.57,5.14c-0.963,1.499 -1.91,2.784 -2.837,3.854c-0.929,1.071 -1.713,1.927 -2.355,2.571c-0.643,0.642 -1.499,1.444 -2.57,2.408c-1.071,0.964 -2.34,1.911 -3.801,2.837c-1.464,0.929 -3.159,1.786 -5.087,2.57c-1.927,0.787 -4.104,1.358 -6.531,1.713c-1.07,0.145 -1.964,0.269 -2.677,0.376c-0.714,0.106 -1.07,0.267 -1.07,0.481c0,0.144 0.177,0.321 0.535,0.536c0.356,0.213 1.034,0.32 2.034,0.32c3.355,0 6.835,-0.749 10.44,-2.248c3.604,-1.498 7.083,-3.855 10.44,-7.067m-26.233,-58.247c4.139,0 8.084,0.893 11.832,2.677c3.747,1.785 7.012,4.176 9.797,7.174c2.783,2.998 4.995,6.423 6.638,10.279c1.642,3.855 2.462,7.852 2.462,11.992c0,4.068 -0.875,7.942 -2.623,11.617c-1.749,3.677 -4.051,6.925 -6.906,9.743c-2.856,2.822 -6.121,5.07 -9.797,6.746c-3.678,1.678 -7.479,2.517 -11.403,2.517c-4.213,0 -8.245,-0.804 -12.099,-2.41c-3.855,-1.606 -7.264,-3.801 -10.225,-6.585c-2.963,-2.783 -5.318,-6.03 -7.066,-9.743c-1.751,-3.711 -2.624,-7.672 -2.624,-11.885c0,4.283 0.856,8.369 2.57,12.26c1.713,3.891 4.032,7.299 6.958,10.224c2.928,2.929 6.334,5.247 10.226,6.96c3.89,1.715 7.976,2.57 12.26,2.57c4.353,0 8.476,-0.837 12.367,-2.516c3.889,-1.676 7.297,-3.961 10.225,-6.852c2.926,-2.892 5.247,-6.281 6.96,-10.172c1.713,-3.89 2.57,-8.048 2.57,-12.474c0,-4.283 -0.857,-8.369 -2.57,-12.26c-1.713,-3.889 -4.016,-7.297 -6.907,-10.225c-2.89,-2.926 -6.301,-5.263 -10.225,-7.014c-3.926,-1.748 -8.067,-2.623 -12.42,-2.623m-26.232,4.818c-1.857,1.858 -3.464,3.908 -4.818,6.158c-1.358,2.248 -2.482,4.533 -3.373,6.851c-0.893,2.321 -1.553,4.642 -1.981,6.96c-0.428,2.321 -0.642,4.481 -0.642,6.478c0,1.071 0.053,2.213 0.161,3.427c0.106,1.214 0.266,2.355 0.481,3.426c0.214,1.071 0.445,1.946 0.696,2.624c0.249,0.678 0.552,1.017 0.911,1.017c0.213,0 0.32,-0.178 0.32,-0.535c0,-0.286 -0.037,-0.733 -0.107,-1.34c-0.072,-0.605 -0.143,-1.266 -0.213,-1.981c-0.074,-0.713 -0.145,-1.427 -0.215,-2.14c-0.072,-0.714 -0.108,-1.356 -0.108,-1.928c0,-3.783 0.446,-7.209 1.339,-10.279c0.892,-3.069 1.945,-5.729 3.159,-7.977c1.213,-2.249 2.426,-4.103 3.64,-5.567c1.213,-1.463 2.142,-2.517 2.783,-3.159c0.644,-0.642 1.696,-1.517 3.16,-2.624c1.462,-1.106 3.334,-2.211 5.621,-3.319c2.284,-1.105 4.961,-2.07 8.029,-2.89c3.069,-0.821 6.495,-1.232 10.28,-1.232c0.643,0 1.373,0.018 2.196,0.053c0.819,0.038 1.605,0.091 2.354,0.161c0.749,0.072 1.393,0.125 1.929,0.161c0.535,0.036 0.765,0.053 0.695,0.053c0.429,0 0.642,-0.07 0.642,-0.214c0,-0.285 -0.34,-0.552 -1.017,-0.803c-0.679,-0.249 -1.536,-0.482 -2.57,-0.696c-1.035,-0.214 -2.16,-0.375 -3.372,-0.482c-1.215,-0.107 -2.356,-0.16 -3.426,-0.16c-2.071,0 -4.267,0.178 -6.585,0.535c-2.321,0.359 -4.658,0.929 -7.014,1.713c-2.356,0.787 -4.64,1.803 -6.852,3.053c-2.213,1.249 -4.212,2.766 -5.995,4.549l-0.108,0.107Zm54.499,-1.071c3.997,3.928 6.976,8.353 8.941,13.278c1.963,4.925 2.945,9.957 2.945,15.097c0,5.425 -1.071,10.564 -3.213,15.418c-2.142,4.856 -5.051,9.101 -8.728,12.742c-3.676,3.641 -7.94,6.531 -12.793,8.673c-4.855,2.141 -9.996,3.212 -15.419,3.212c-5.354,0 -10.457,-1.071 -15.311,-3.212c-4.854,-2.142 -9.119,-5.032 -12.795,-8.673c-3.678,-3.641 -6.585,-7.886 -8.726,-12.742c-2.142,-4.854 -3.212,-9.993 -3.212,-15.418c0,-5.354 1.07,-10.456 3.212,-15.312c2.141,-4.852 5.032,-9.117 8.672,-12.794c3.641,-3.676 7.886,-6.602 12.742,-8.781c4.852,-2.177 9.992,-3.266 15.418,-3.266c5.14,0 10.171,0.983 15.097,2.945c4.925,1.965 9.315,4.909 13.17,8.833" style="fill:#231f20;fill-rule:nonzero;"/><path d="M326.138,66.278c3.354,-3.426 5.763,-6.995 7.228,-10.707c1.462,-3.71 2.194,-7.28 2.194,-10.707c0,-1.427 -0.285,-2.141 -0.856,-2.141c-0.358,0 -0.553,0.25 -0.588,0.749c-0.039,0.5 -0.127,1.392 -0.269,2.677c-0.358,2.5 -0.91,4.712 -1.659,6.638c-0.749,1.928 -1.607,3.641 -2.571,5.14c-0.963,1.499 -1.909,2.784 -2.836,3.854c-0.929,1.071 -1.713,1.927 -2.356,2.571c-0.643,0.642 -1.499,1.444 -2.57,2.408c-1.071,0.964 -2.339,1.911 -3.801,2.837c-1.464,0.929 -3.158,1.786 -5.087,2.57c-1.926,0.787 -4.104,1.358 -6.531,1.713c-1.07,0.145 -1.964,0.269 -2.677,0.376c-0.714,0.106 -1.07,0.267 -1.07,0.481c0,0.144 0.177,0.321 0.535,0.536c0.357,0.213 1.034,0.32 2.035,0.32c3.354,0 6.834,-0.749 10.439,-2.248c3.604,-1.498 7.084,-3.855 10.44,-7.067m-22.485,-24.519l0,-0.106c0,0.143 -0.589,0.285 -1.767,0.427c-1.178,0.144 -2.374,0.215 -3.587,0.215c-0.714,0 -1.321,-0.017 -1.82,-0.054c-0.5,-0.035 -0.821,-0.124 -0.964,-0.268c0.07,-0.642 0.338,-1.641 0.804,-2.997c0.463,-1.357 0.979,-2.748 1.551,-4.177c0.644,-1.641 1.356,-3.389 2.142,-5.247l3.641,12.207Zm-3.748,-33.728c4.139,0 8.084,0.893 11.832,2.677c3.748,1.785 7.013,4.176 9.797,7.174c2.784,2.998 4.995,6.423 6.639,10.279c1.641,3.855 2.462,7.852 2.462,11.992c0,4.068 -0.876,7.942 -2.624,11.617c-1.749,3.677 -4.051,6.925 -6.906,9.743c-2.856,2.822 -6.121,5.07 -9.797,6.746c-3.677,1.678 -7.479,2.517 -11.403,2.517c-4.212,0 -8.245,-0.804 -12.099,-2.41c-3.854,-1.606 -7.265,-3.801 -10.225,-6.585c-2.964,-2.783 -5.319,-6.03 -7.067,-9.743c-1.75,-3.711 -2.623,-7.672 -2.623,-11.885c0,4.283 0.855,8.369 2.57,12.26c1.713,3.891 4.031,7.299 6.958,10.224c2.927,2.929 6.335,5.247 10.226,6.96c3.89,1.715 7.977,2.57 12.26,2.57c4.353,0 8.476,-0.837 12.367,-2.516c3.889,-1.676 7.298,-3.961 10.225,-6.852c2.926,-2.892 5.247,-6.281 6.96,-10.172c1.713,-3.89 2.571,-8.048 2.571,-12.474c0,-4.283 -0.858,-8.369 -2.571,-12.26c-1.713,-3.889 -4.015,-7.297 -6.906,-10.225c-2.891,-2.926 -6.301,-5.263 -10.226,-7.014c-3.925,-1.748 -8.067,-2.623 -12.42,-2.623m-26.232,4.818c-1.857,1.858 -3.464,3.908 -4.818,6.158c-1.358,2.248 -2.482,4.533 -3.374,6.851c-0.892,2.321 -1.553,4.642 -1.98,6.96c-0.428,2.321 -0.642,4.481 -0.642,6.478c0,1.071 0.053,2.213 0.16,3.427c0.107,1.214 0.267,2.355 0.482,3.426c0.214,1.071 0.445,1.946 0.696,2.624c0.249,0.678 0.552,1.017 0.91,1.017c0.214,0 0.321,-0.178 0.321,-0.535c0,-0.286 -0.037,-0.733 -0.107,-1.34c-0.072,-0.605 -0.144,-1.266 -0.214,-1.981c-0.073,-0.713 -0.145,-1.427 -0.215,-2.14c-0.071,-0.714 -0.107,-1.356 -0.107,-1.928c0,-3.783 0.446,-7.209 1.339,-10.279c0.892,-3.069 1.944,-5.729 3.158,-7.977c1.214,-2.249 2.426,-4.103 3.641,-5.567c1.212,-1.463 2.142,-2.517 2.783,-3.159c0.644,-0.642 1.695,-1.517 3.16,-2.624c1.462,-1.106 3.335,-2.211 5.622,-3.319c2.283,-1.105 4.96,-2.07 8.029,-2.89c3.068,-0.821 6.494,-1.232 10.28,-1.232c0.642,0 1.373,0.018 2.195,0.053c0.819,0.038 1.606,0.091 2.355,0.161c0.749,0.072 1.393,0.125 1.928,0.161c0.535,0.036 0.765,0.053 0.695,0.053c0.429,0 0.643,-0.07 0.643,-0.214c0,-0.285 -0.34,-0.552 -1.018,-0.803c-0.679,-0.249 -1.536,-0.482 -2.57,-0.696c-1.035,-0.214 -2.159,-0.375 -3.372,-0.482c-1.214,-0.107 -2.356,-0.16 -3.426,-0.16c-2.071,0 -4.267,0.178 -6.585,0.535c-2.321,0.359 -4.658,0.929 -7.013,1.713c-2.356,0.787 -4.641,1.803 -6.853,3.053c-2.213,1.249 -4.213,2.766 -5.996,4.549l-0.107,0.107Zm54.5,-1.071c3.996,3.928 6.976,8.353 8.94,13.278c1.963,4.925 2.945,9.957 2.945,15.097c0,5.425 -1.07,10.564 -3.212,15.418c-2.142,4.856 -5.052,9.101 -8.728,12.742c-3.677,3.641 -7.941,6.531 -12.794,8.673c-4.855,2.141 -9.995,3.212 -15.419,3.212c-5.354,0 -10.457,-1.071 -15.311,-3.212c-4.854,-2.142 -9.119,-5.032 -12.795,-8.673c-3.678,-3.641 -6.585,-7.886 -8.726,-12.742c-2.142,-4.854 -3.212,-9.993 -3.212,-15.418c0,-5.354 1.07,-10.456 3.212,-15.312c2.141,-4.852 5.032,-9.117 8.672,-12.794c3.641,-3.676 7.886,-6.602 12.743,-8.781c4.851,-2.177 9.992,-3.266 15.417,-3.266c5.14,0 10.172,0.983 15.097,2.945c4.925,1.965 9.316,4.909 13.171,8.833" style="fill:#231f20;fill-rule:nonzero;"/><path d="M37.986,106.59l0.293,0.088l-0.029,0.089l0.323,-0.206c-0.02,0 0.724,-0.029 2.23,-0.088c-0.058,-0.176 -0.147,-0.313 -0.264,-0.411l0,-1.027c-0.176,-0.235 -0.254,-0.596 -0.235,-1.086c-0.176,-0.332 -0.274,-0.616 -0.293,-0.851l0.117,0.03l-0.199,-0.205c-0.067,-0.157 -0.111,-0.333 -0.133,-0.529c-0.111,-0.117 -0.166,-0.235 -0.166,-0.352c0,-0.078 0.039,-0.176 0.117,-0.293c-0.137,-0.235 -0.255,-0.685 -0.352,-1.35c-0.02,0.195 -0.098,0.459 -0.235,0.791c-0.02,0.196 -0.069,0.421 -0.147,0.674l-0.117,0.089l0,0.996l-0.205,0.059l-0.118,0.675l-0.147,0.146l0,1.114l-0.224,0.059l-0.112,0.676l-0.104,0.089l0,0.823Zm-0.44,2.348l0,-0.029l0,0.029Zm-0.029,0.029l0,-0.029l0,0.029Zm0,-0.029l0.029,0l-0.029,0Zm6.162,-0.47c0.098,0.333 0.157,0.734 0.176,1.204c0.391,0.039 0.978,0.234 1.761,0.586c0.117,0.04 0.283,0.118 0.499,0.235l0.088,0.441l-0.059,0.498c-0.137,0.059 -0.225,0.187 -0.264,0.382c-0.118,0.039 -0.196,0.225 -0.235,0.558l-0.616,0c-0.979,0 -2.446,-0.079 -4.402,-0.235l-0.499,-0.235l0,-1.438c0.274,-0.293 0.724,-0.469 1.35,-0.528l0,-1.174l-0.058,-0.059l-3.874,0l0,0.089l0.264,0.263l-0.264,0.264l0,0.646l1.02,0.235l0.27,0.235l0.06,0.381l-0.059,0.441c-0.158,0.117 -0.354,0.42 -0.59,0.909c-0.491,0 -1.214,0.034 -2.168,0.103c-0.953,0.068 -1.666,0.103 -2.137,0.103c-0.217,-0.118 -0.433,-0.235 -0.65,-0.353c-0.216,-0.117 -0.324,-0.391 -0.324,-0.821l0.059,-0.47c0.234,-0.41 0.899,-0.684 1.995,-0.822l0.206,-0.498l0.117,-0.089l0,-0.851l0.235,-0.322l-0.059,0l0.176,-0.411l0.118,-0.059l0,-1.086l0.234,-0.117l0,-0.88l0.176,-0.176l0.117,-0.558l0.177,-0.264c-0.02,-0.039 -0.03,-0.098 -0.03,-0.176c0,-0.137 0.039,-0.313 0.118,-0.528l0.147,-0.117l0,-1.351l0.205,-0.087c0.039,-0.137 0.108,-0.294 0.206,-0.47l0.117,-0.792l0.176,-0.264c0,-0.196 0.019,-0.411 0.059,-0.646l0.176,-0.294l0,-0.146c0,-0.156 0.019,-0.362 0.058,-0.616l0.147,-0.177c0.215,-0.88 0.704,-1.33 1.467,-1.349c0.079,0.039 0.206,0.098 0.382,0.175c0.176,0.079 0.401,0.226 0.675,0.441c0.117,0.039 0.303,0.117 0.557,0.235l0,0.587l0.059,0.029l0,1.174l0.147,0.146c0,0.098 0.078,0.235 0.235,0.411c0,0.137 0.029,0.352 0.087,0.646l0.177,0.205l0,0.47l-0.118,0.146c0.059,0.157 0.166,0.372 0.323,0.646c0.059,0.235 0.097,0.48 0.118,0.734c0.117,0.078 0.234,0.176 0.352,0.293c0.019,0.196 0.097,0.401 0.234,0.616c0.176,0.275 0.284,0.45 0.323,0.529l0.117,0.117c0.059,0.196 0.108,0.372 0.147,0.528l0.118,0.147c0.195,0.959 0.303,1.566 0.322,1.819c0.098,0.157 0.166,0.304 0.206,0.44l-0.088,0.294l-0.059,0.058Z" style="fill:#231f20;fill-rule:nonzero;stroke:#231f20;stroke-width:0.48px;"/><path d="M67.507,104.947c1.549,0 2.498,-0.01 2.846,-0.03c1.414,-0.156 2.15,-0.547 2.208,-1.173c0.096,-0.137 0.222,-0.274 0.377,-0.411c0.019,-0.196 0.068,-0.401 0.145,-0.616l0.088,-0.059l0,-0.734c-0.138,-0.215 -0.196,-0.606 -0.177,-1.174c-0.098,-0.097 -0.166,-0.185 -0.205,-0.263c-0.137,-0.04 -0.343,-0.118 -0.616,-0.235c-0.098,-0.216 -0.372,-0.352 -0.822,-0.411l-0.117,-0.118c-0.235,0 -0.607,-0.014 -1.115,-0.044c-0.509,-0.029 -0.901,-0.044 -1.174,-0.044l-1.409,-0.029c-0.058,0.039 -0.137,0.117 -0.235,0.235l-0.146,0c0.152,0.137 0.347,0.274 0.587,0.411l-0.235,0.235l0.07,0.205l0.047,0.058l-0.117,0.558l0.039,-0.117l0.039,0.029c0.078,0.176 0.13,0.656 0.157,1.438l-0.235,0.117l0,1.115l-0.147,0.059l0.029,0.206l-0.088,-0.03l0.206,0.323l0,0.499Zm6.93,-4.607l0.146,0.147c0.019,0.117 0.165,0.313 0.438,0.586l0.116,0.47l0.176,0.147l0,2.083l-0.178,0.147l-0.118,0.469c-0.414,0.49 -0.68,0.783 -0.798,0.881c-0.316,0.293 -0.661,0.509 -1.035,0.645c-0.118,0.255 -0.385,0.48 -0.799,0.675c-0.236,0 -0.601,0.044 -1.093,0.132c-0.493,0.088 -0.858,0.132 -1.095,0.132l-2.69,0l0,2.367c0.076,0.366 0.105,0.664 0.086,0.894c0.478,0.097 1.062,0.135 1.751,0.116c0.248,0.096 0.507,0.289 0.775,0.577l0,0.809c-0.549,0.346 -1.155,0.519 -1.82,0.519l-4.724,0c-0.275,-0.194 -0.509,-0.438 -0.705,-0.73l0,-0.467c0.078,-0.117 0.157,-0.214 0.235,-0.292c0.47,-0.194 1.242,-0.36 2.319,-0.496l0,-4.06l0,-0.029l0,-6.339l-0.976,0c-0.612,0 -1.119,-0.182 -1.52,-0.548l-0.058,-0.404l0.058,-0.433c0.371,-0.27 0.643,-0.405 0.819,-0.405l2.249,0c0.097,0 0.242,0.04 0.437,0.118c0.409,0 1.052,-0.044 1.928,-0.132c0.876,-0.088 1.529,-0.133 1.957,-0.133c0.37,0 1.11,0.187 2.22,0.558c0.273,0.293 0.701,0.675 1.285,1.145l0.059,0.146c0.253,0.137 0.437,0.372 0.555,0.705Z" style="fill:#231f20;fill-rule:nonzero;stroke:#231f20;stroke-width:0.48px;"/><path d="M85.084,99.283l0.059,-0.029l-0.059,0l0,0.029Zm3.082,11.063l0,-0.088c-0.138,-0.136 -0.206,-0.303 -0.206,-0.498c0,-0.137 0.02,-0.294 0.059,-0.47l0.147,-0.088l0,-1.937l0.205,-0.088c0.039,-0.195 0.068,-0.459 0.088,-0.792l0.733,-0.44l0.265,0c0.195,0.078 0.381,0.204 0.557,0.379l0,5.316c-0.235,0.098 -0.47,0.263 -0.704,0.497l-1.849,0l-0.117,-0.089l-0.117,0c-0.255,0 -0.642,0.039 -1.16,0.118c-0.518,0.078 -0.905,0.117 -1.159,0.117c-0.45,0 -1.135,0.01 -2.054,0.029c-0.92,0.02 -1.604,0.03 -2.054,0.03l-1.761,0.029c-0.235,0 -0.465,-0.116 -0.689,-0.347c-0.225,-0.231 -0.338,-0.453 -0.338,-0.665c0,-0.675 0.451,-1.013 1.353,-1.013c0.384,0 0.7,0.04 0.95,0.118c0.172,-0.053 0.402,-0.092 0.69,-0.118l0,-2.42l0.147,-0.088c0,-0.158 -0.025,-0.443 -0.073,-0.856c-0.05,-0.354 -0.074,-0.639 -0.074,-0.856l0,-0.088l-0.039,-0.06c0,-0.354 -0.008,-0.944 -0.026,-1.77c-0.009,-0.748 -0.013,-1.328 -0.013,-1.741c-0.046,-0.197 -0.059,-0.649 -0.039,-1.358l0.117,-0.118l0,-1.033c-1.639,0 -2.628,-0.078 -2.963,-0.235l-0.059,-0.528l0.059,-0.616l0.41,-0.381c0.078,-0.02 0.176,-0.079 0.294,-0.177c0.606,0 1.53,-0.019 2.773,-0.058c1.242,-0.039 2.176,-0.059 2.802,-0.059l0.206,0c0.254,0.157 0.655,0.196 1.203,0.117c0.195,0.157 0.352,0.314 0.469,0.47l0.059,0.469l-0.059,0.411c-0.078,0.176 -0.225,0.333 -0.44,0.47l-0.557,0.088l0.058,-0.044l-0.176,-0.044l0,0.117l-0.146,0c-0.157,-0.078 -0.304,-0.117 -0.441,-0.117c0.078,0 -0.411,0.039 -1.467,0.117l0,1.145c0.03,0.196 0.049,0.85 0.059,1.966l-0.059,0.117l0,0.235l0.059,0.117l0,6.808l5.077,0Z" style="fill:#231f20;fill-rule:nonzero;stroke:#231f20;stroke-width:0.48px;"/><path d="M96.852,106.59l0.293,0.088l-0.029,0.089l0.323,-0.206c-0.02,0 0.724,-0.029 2.23,-0.088c-0.058,-0.176 -0.147,-0.313 -0.264,-0.411l0,-1.027c-0.176,-0.235 -0.254,-0.596 -0.235,-1.086c-0.176,-0.332 -0.274,-0.616 -0.293,-0.851l0.117,0.03l-0.199,-0.205c-0.067,-0.157 -0.111,-0.333 -0.133,-0.529c-0.111,-0.117 -0.166,-0.235 -0.166,-0.352c0,-0.078 0.039,-0.176 0.117,-0.293c-0.137,-0.235 -0.255,-0.685 -0.352,-1.35c-0.02,0.195 -0.098,0.459 -0.235,0.791c-0.02,0.196 -0.069,0.421 -0.147,0.674l-0.117,0.089l0,0.996l-0.205,0.059l-0.118,0.675l-0.147,0.146l0,1.114l-0.224,0.059l-0.112,0.676l-0.104,0.089l0,0.823Zm-0.44,2.348l0,-0.029l0,0.029Zm-0.029,0.029l0,-0.029l0,0.029Zm0,-0.029l0.029,0l-0.029,0Zm6.162,-0.47c0.098,0.333 0.157,0.734 0.176,1.204c0.391,0.039 0.978,0.234 1.761,0.586c0.117,0.04 0.283,0.118 0.499,0.235l0.088,0.441l-0.059,0.498c-0.137,0.059 -0.225,0.187 -0.264,0.382c-0.118,0.039 -0.196,0.225 -0.235,0.558l-0.616,0c-0.979,0 -2.446,-0.079 -4.402,-0.235l-0.499,-0.235l0,-1.438c0.274,-0.293 0.724,-0.469 1.35,-0.528l0,-1.174l-0.058,-0.059l-3.874,0l0,0.089l0.264,0.263l-0.264,0.264l0,0.646l1.02,0.235l0.27,0.235l0.06,0.381l-0.059,0.441c-0.158,0.117 -0.354,0.42 -0.59,0.909c-0.491,0 -1.214,0.034 -2.168,0.103c-0.953,0.068 -1.666,0.103 -2.137,0.103c-0.217,-0.118 -0.433,-0.235 -0.65,-0.353c-0.216,-0.117 -0.324,-0.391 -0.324,-0.821l0.059,-0.47c0.234,-0.41 0.899,-0.684 1.995,-0.822l0.206,-0.498l0.117,-0.089l0,-0.851l0.235,-0.322l-0.059,0l0.176,-0.411l0.118,-0.059l0,-1.086l0.234,-0.117l0,-0.88l0.176,-0.176l0.117,-0.558l0.177,-0.264c-0.02,-0.039 -0.03,-0.098 -0.03,-0.176c0,-0.137 0.039,-0.313 0.118,-0.528l0.147,-0.117l0,-1.351l0.205,-0.087c0.039,-0.137 0.108,-0.294 0.206,-0.47l0.117,-0.792l0.176,-0.264c0,-0.196 0.019,-0.411 0.059,-0.646l0.176,-0.294l0,-0.146c0,-0.156 0.019,-0.362 0.058,-0.616l0.147,-0.177c0.215,-0.88 0.704,-1.33 1.467,-1.349c0.079,0.039 0.206,0.098 0.382,0.175c0.176,0.079 0.401,0.226 0.675,0.441c0.117,0.039 0.303,0.117 0.557,0.235l0,0.587l0.059,0.029l0,1.174l0.147,0.146c0,0.098 0.078,0.235 0.235,0.411c0,0.137 0.029,0.352 0.087,0.646l0.177,0.205l0,0.47l-0.118,0.146c0.059,0.157 0.166,0.372 0.323,0.646c0.059,0.235 0.097,0.48 0.118,0.734c0.117,0.078 0.234,0.176 0.352,0.293c0.019,0.196 0.097,0.401 0.234,0.616c0.176,0.275 0.284,0.45 0.323,0.529l0.117,0.117c0.059,0.196 0.108,0.372 0.147,0.528l0.118,0.147c0.195,0.959 0.303,1.566 0.322,1.819c0.098,0.157 0.166,0.304 0.206,0.44l-0.088,0.294l-0.059,0.058Z" style="fill:#231f20;fill-rule:nonzero;stroke:#231f20;stroke-width:0.48px;"/><path d="M116.102,99.02l0.059,-0.206c0.332,-0.371 0.713,-0.557 1.144,-0.557l0.411,0.029c0.136,0.176 0.362,0.431 0.675,0.763l0.059,0.587l-0.059,0.587c-0.313,0.294 -0.46,0.509 -0.44,0.646l-0.118,0.146l0,0.793c0.078,0.176 0.118,0.342 0.118,0.499l-0.206,0.322l-0.059,0.734c-0.058,0.058 -0.147,0.205 -0.264,0.44c-0.274,0.216 -0.528,0.313 -0.763,0.294l-0.763,-0.529c-0.019,-0.156 -0.039,-0.303 -0.058,-0.44l-0.176,-0.234l0,-0.705l0,-0.117l-0.058,-0.088l-0.058,-0.294l-0.173,-0.147c-0.039,-0.273 -0.251,-0.576 -0.637,-0.909c-0.231,-0.059 -0.405,-0.156 -0.52,-0.294c-0.27,-0.117 -0.424,-0.176 -0.463,-0.176l-1.069,0c0.173,0 -0.068,0.079 -0.723,0.235c-0.116,0.098 -0.28,0.176 -0.492,0.235c-0.385,0.372 -0.597,0.675 -0.636,0.909l-0.173,0.147c-0.019,0.099 -0.038,0.205 -0.058,0.323l-0.145,0.147c-0.038,0.117 -0.067,0.283 -0.086,0.499l-0.173,0.205c-0.039,0.216 -0.107,0.391 -0.203,0.528c-0.019,0.274 -0.068,0.528 -0.144,0.763l-0.059,0.059l0,1.731c0.118,0.255 0.186,0.509 0.205,0.763c0.117,0.216 0.186,0.568 0.205,1.057l0.176,0.176c0.019,0.157 0.048,0.303 0.087,0.44l0.146,0.147c0.039,0.293 0.195,0.567 0.468,0.821c0.078,0.47 0.449,0.851 1.112,1.145c0.545,0.215 1.101,0.322 1.667,0.322l0.087,0c0.449,-0.273 0.702,-0.429 0.761,-0.469c0.292,-0.215 0.468,-0.44 0.526,-0.675c0.176,-0.215 0.449,-0.528 0.819,-0.939c0.039,-0.117 0.068,-0.244 0.088,-0.381l0.146,-0.206c0.02,-0.234 0.078,-0.479 0.176,-0.733c0.078,-0.059 0.156,-0.196 0.234,-0.412l0.438,-0.234l0.79,0c0.234,0.157 0.399,0.333 0.497,0.528l0,1.204l-0.147,0.146l-0.147,0.587l-0.117,0.117l-0.117,0.499c-0.216,0.294 -0.548,0.714 -0.998,1.262c-0.411,0.333 -0.998,0.811 -1.761,1.438c-0.685,0.195 -1.349,0.293 -1.995,0.293c-1.429,0 -2.72,-0.606 -3.873,-1.819l-0.089,-0.352l-0.117,-0.147l-0.059,-0.147c-0.078,-0.078 -0.147,-0.166 -0.205,-0.264c-0.02,-0.215 -0.049,-0.381 -0.088,-0.499c-0.059,-0.039 -0.206,-0.088 -0.44,-0.146l0,-1.028l-0.176,-0.146c-0.177,-1.369 -0.255,-2.788 -0.235,-4.255l0.176,-0.147l0,-0.939l0.264,-0.205c0,-0.039 0.068,-0.176 0.205,-0.411l0.059,-0.499c0.059,-0.078 0.137,-0.254 0.235,-0.528l0.117,-0.118l0.147,-0.645c0.156,-0.137 0.45,-0.528 0.88,-1.174l-0.087,0.205c0.038,-0.117 0.341,-0.327 0.909,-0.631c0.567,-0.302 0.958,-0.474 1.174,-0.513l0.146,-0.176l2.172,0l0.293,0.205l-0.029,-0.058c0.137,0.039 0.313,0.137 0.528,0.293c0.157,0.02 0.509,0.128 1.057,0.323Z" style="fill:#231f20;fill-rule:nonzero;stroke:#231f20;stroke-width:0.48px;"/><path d="M128.573,104.419l-0.146,-0.151l0,-1.239l0.149,-0.151c0.059,-0.142 0.149,-0.302 0.268,-0.484l0.599,0c0.119,0 0.328,0.117 0.627,0.352l0,3.17l0,-0.03l0.205,0.323l0,0.499l-0.205,0.323l-0.059,0.704c-0.274,0.196 -0.626,0.284 -1.057,0.264c-0.195,-0.118 -0.371,-0.264 -0.527,-0.44l0,-1.468l-2.29,0l0,4.666l0.351,0.059l4.319,0c0.253,0 0.476,-0.009 0.671,-0.029l0,-0.91l0.294,-0.117l0,-1.292l0.205,-0.117l0,-1.086l1.321,0c0.176,0.098 0.332,0.245 0.469,0.441l0.059,-0.265l0,0.323l-0.059,-0.058c-0.078,0.626 -0.147,1.105 -0.205,1.438l0.264,0.205l-0.411,0.264l0,1.496l-0.117,0.03l0.117,0.059l0,0.792c-0.374,0.235 -1.042,0.371 -2.006,0.411c-0.708,0.019 -1.425,0.029 -2.153,0.029c-0.57,0.019 -0.934,0.078 -1.091,0.176l-5.545,0c-0.098,0 -0.354,-0.176 -0.767,-0.528l-0.059,-0.528l0.059,-0.47l0.499,-0.264l2.054,0l0,-10.682l-2.113,0c-0.176,-0.156 -0.323,-0.332 -0.44,-0.527l0,-0.47c0.117,-0.156 0.254,-0.313 0.411,-0.47l0.293,-0.176c0.47,0 1.169,-0.014 2.099,-0.044c0.928,-0.029 1.628,-0.044 2.098,-0.044l2.67,0l3.228,0.088l0.528,0.44l0,1.262c0.13,0.235 0.209,0.998 0.235,2.289c-0.279,0.196 -0.558,0.293 -0.837,0.293c-0.278,0 -0.478,-0.125 -0.597,-0.377l-0.209,-0.145l0,-2.265l-5.84,0.146c0.039,0.398 0.068,1.201 0.088,2.41l-0.088,0.09l0.088,0.118l0,0.625l-0.117,0.179l0.234,0.09l0,0.773l2.436,0Z" style="fill:#231f20;fill-rule:nonzero;stroke:#231f20;stroke-width:0.48px;"/><path d="M154.021,108.087l-0.122,-0.176l0,-3.492l0.146,-0.118l0,-0.527c-0.097,-0.118 -0.146,-0.226 -0.146,-0.323c0,-0.078 0.049,-0.186 0.146,-0.323l0,-0.558c-0.097,-0.195 -0.146,-0.381 -0.146,-0.557l0.049,-0.47l0.097,-0.088l0,-1.262l-1.76,0l-0.734,-0.352l0,-1.585l11.21,0c0.019,0.235 0.044,0.382 0.073,0.441c0.03,0.058 0.123,0.137 0.279,0.234c0.019,0.666 0.039,1.654 0.058,2.964l0.119,0.206l0,0.528c-0.138,0.215 -0.382,0.431 -0.735,0.646l-0.528,0c-0.352,-0.118 -0.568,-0.343 -0.646,-0.675l-0.088,-0.118l-0.087,-0.352l0.175,-0.293l0,-0.411c-0.136,-0.313 -0.195,-0.734 -0.175,-1.262c-0.979,-0.078 -2.202,-0.118 -3.668,-0.118c-0.92,0 -1.488,0.05 -1.703,0.147l0,4.108l1.82,0l0,-2.171c0.556,-0.137 0.874,-0.206 0.954,-0.206l0.178,0l0.804,0.529l0,4.343l0.148,0.264l0,0.469c-0.18,0.196 -0.29,0.441 -0.329,0.734l-0.449,0.205l-0.149,0c-0.08,0 -0.329,-0.043 -0.747,-0.13l-0.212,-0.381l0.036,0.042l-0.234,-0.352l0,-1.556l-1.82,0l0,1.644c0.079,0.176 0.118,0.352 0.118,0.528l-0.118,0.117l0,2.319c0.137,0 0.372,-0.025 0.705,-0.073c0.333,-0.049 0.586,-0.074 0.763,-0.074c0.059,0 0.322,0.02 0.792,0.059l0.704,0.675l0,0.41c-0.645,0.607 -1.086,0.9 -1.32,0.881l-5.399,-0.117c-0.197,0 -0.451,-0.177 -0.764,-0.529l-0.059,-0.44l0.06,-0.411c0.198,-0.352 0.435,-0.528 0.713,-0.528c0.039,0 0.107,0.025 0.207,0.074c0.098,0.048 0.168,0.073 0.208,0.073l1.454,0l-0.088,-0.029l0.234,-0.323l-0.234,-0.294l0.234,-0.205l0,-1.555l0,0.029l-0.024,-0.235Z" style="fill:#231f20;fill-rule:nonzero;stroke:#231f20;stroke-width:0.48px;"/><path d="M176.2,105.294c-0.215,-0.311 -0.322,-0.535 -0.322,-0.671c0,-0.098 0.039,-0.214 0.117,-0.351l0.059,0.029l-0.176,-0.292l-0.117,-0.703c-0.099,-0.156 -0.177,-0.312 -0.236,-0.468c-0.078,-0.078 -0.146,-0.234 -0.205,-0.468l-0.117,-0.118c-0.079,-0.331 -0.148,-0.541 -0.206,-0.629c-0.059,-0.088 -0.234,-0.229 -0.527,-0.424l0.137,-0.176l-0.41,-0.411c-0.02,-0.137 -0.138,-0.276 -0.352,-0.413c-0.352,-0.532 -0.879,-0.788 -1.583,-0.769l-0.117,0c-0.019,0.02 -0.293,0.03 -0.82,0.03c-0.273,0.136 -0.635,0.282 -1.084,0.438c-0.098,0.098 -0.157,0.215 -0.176,0.352c-0.136,0.214 -0.351,0.497 -0.644,0.848c-0.021,0.098 -0.04,0.205 -0.059,0.322l-0.176,0.146c-0.02,0.098 -0.04,0.215 -0.058,0.352c-0.137,0.097 -0.225,0.214 -0.264,0.351l-0.322,0.322l0,3.453c0.097,0.235 0.165,0.459 0.205,0.673l0.146,0.176c0.059,0.312 0.122,0.62 0.191,0.922c0.068,0.302 0.23,0.561 0.484,0.775c0.059,0.293 0.283,0.596 0.675,0.908l0.089,0.175c0.86,0.351 1.32,0.527 1.379,0.527l0.792,0c0.058,0 0.391,-0.127 0.998,-0.38l0.146,-0.175c0.294,-0.097 0.46,-0.155 0.499,-0.175c0.176,-0.078 0.283,-0.205 0.324,-0.38l0.087,-0.117l0.147,-0.613c0.215,-0.194 0.332,-0.311 0.351,-0.35c0.04,-0.156 0.089,-0.311 0.148,-0.467l0.088,-0.088c0.058,-0.234 0.137,-0.418 0.234,-0.555c0.02,-0.292 0.078,-0.574 0.177,-0.847l0.322,-0.175l0.088,-0.467l0.088,-0.117Zm0.558,-4.162l0.264,0.147l0,1.057c0.059,0.156 0.196,0.362 0.411,0.616l0,3.844c-0.098,0.04 -0.235,0.107 -0.411,0.205l0,0.118l0.176,0.146l0,0.616c-0.137,0.059 -0.225,0.235 -0.264,0.529l-0.147,0.117l-0.117,0.47c-0.196,0.176 -0.421,0.479 -0.675,0.909c-0.098,0.157 -0.225,0.333 -0.382,0.529c-0.098,0.313 -0.381,0.616 -0.85,0.909l-0.264,-0.029l-0.323,0.323l-0.353,0.117l0,-0.029l-0.205,0.164c-0.45,0.164 -1.027,0.247 -1.731,0.247c-0.137,0 -0.573,-0.107 -1.306,-0.321c-0.734,-0.213 -1.208,-0.358 -1.423,-0.437c-0.294,-0.291 -0.656,-0.602 -1.086,-0.932l-0.117,-0.378l-0.118,-0.117c-0.039,-0.136 -0.196,-0.281 -0.469,-0.436l-0.06,-0.204c-0.078,-0.078 -0.146,-0.165 -0.205,-0.263l-0.088,-0.756l0.03,0.029l-0.176,-0.264c0,-0.118 -0.069,-0.215 -0.206,-0.294l-0.117,-0.645l-0.323,-0.294l0.176,-0.147c0,0.059 -0.019,-0.244 -0.058,-0.909c-0.02,-0.567 -0.02,-1.017 0,-1.35c0.019,-0.47 0.088,-0.763 0.205,-0.88c0.078,-0.196 0.185,-0.499 0.323,-0.91l0.176,-0.293c0,-0.196 0.019,-0.412 0.058,-0.646l0.176,-0.293l0.059,-0.499l0.176,-0.235c0.02,-0.118 0.04,-0.265 0.059,-0.44c0.137,-0.098 0.234,-0.225 0.293,-0.382c0.098,-0.078 0.166,-0.186 0.206,-0.323c0.293,-0.312 0.753,-0.724 1.379,-1.232l0.265,-0.059l0.175,-0.147l1.028,-0.352l0.263,-0.16c0.137,-0.017 0.293,-0.062 0.47,-0.133l0.117,0c0.157,0 0.382,0.02 0.675,0.058c0.294,0.04 0.519,0.059 0.675,0.059c0.372,0.235 0.959,0.528 1.761,0.881l1.086,1.085c0.039,0.137 0.127,0.255 0.263,0.352l0.06,0.558l0.41,0.411l0.059,0.293Z" style="fill:#231f20;fill-rule:nonzero;stroke:#231f20;stroke-width:0.48px;"/><path d="M190.668,110.258l0,0.059l0.117,-0.059l-0.117,0Zm-3.022,-5.252c0.057,-0.079 0.164,-0.176 0.319,-0.292c0.406,0 0.842,-0.146 1.307,-0.438c0.464,-0.291 0.726,-0.622 0.784,-0.993l0.145,-0.146c0.038,-0.116 0.068,-0.243 0.087,-0.379l0.146,-0.175l0,-0.818l-0.145,-0.174l-0.087,-0.555l-0.144,-0.146c0,-0.155 -0.02,-0.301 -0.059,-0.438l-0.173,-0.058l-0.202,-0.176l-0.376,-0.116c-0.077,-0.097 -0.236,-0.209 -0.476,-0.336c-0.242,-0.126 -0.429,-0.19 -0.564,-0.19l-2.572,0c-0.347,0 -0.665,0.03 -0.954,0.089c0.039,0.587 0.051,1.839 0.039,3.756c0.051,0.176 0.078,0.352 0.078,0.528l-0.117,0.118l0,0.557l0.645,0c0.998,0 1.771,0.059 2.319,0.176l0,0.206Zm-3.169,0.792l0.117,-0.059c-0.04,-0.019 -0.088,-0.039 -0.147,-0.059l0,0.03c0,0.02 0.009,0.049 0.03,0.088Zm6.719,-6.05l0.382,0.117c0.059,0.196 0.156,0.342 0.293,0.439c0.02,0.137 0.098,0.254 0.234,0.352l0.06,0.351l0.205,0.176l0,2.078c-0.137,0.137 -0.225,0.332 -0.265,0.586c-0.058,0.058 -0.146,0.195 -0.263,0.41c-0.117,0.097 -0.195,0.205 -0.235,0.322c-0.744,0.781 -1.545,1.249 -2.406,1.405c0.151,0 0.272,0.156 0.366,0.468c0.508,0.489 0.809,0.928 0.904,1.318l0.14,0.117c0.038,0.176 0.057,0.351 0.057,0.527l0,0.527c0.098,0.488 0.137,0.888 0.117,1.2l0.088,0.058l0.441,0.089c0.43,-0.078 0.684,-0.118 0.762,-0.118c0.685,0.333 1.028,0.705 1.028,1.115l-0.088,0.499c-0.49,0.118 -0.822,0.176 -0.998,0.176l-1.878,0.029c-0.098,0 -0.264,-0.097 -0.499,-0.293c-0.039,-0.156 -0.118,-0.264 -0.235,-0.323c-0.019,-0.117 -0.107,-0.273 -0.264,-0.469l0,-0.587l0.118,-0.176l0,-0.059l-0.177,-0.616c-0.137,-0.118 -0.195,-0.293 -0.176,-0.528l0.117,-0.177l0,-0.058l-0.175,-0.411l-0.176,-0.205l-0.088,-0.558l0.029,0.029c-0.274,-0.344 -0.734,-0.689 -1.38,-1.034l0.382,-0.345l-0.264,0l0,-0.176l-0.201,0.176l-2.469,0l0,4.226l1.715,0l0.315,0.206c0.134,0.175 0.21,0.352 0.229,0.527l-0.087,0.294c-0.275,0.352 -0.519,0.528 -0.735,0.528l-4.9,0.118c-0.254,0.019 -0.529,-0.118 -0.822,-0.411l-0.058,-0.47l0.058,-0.469c0.386,-0.391 1.238,-0.548 2.553,-0.47l0,-0.117l0,-0.294l0,-0.029l0,-3.991l0.117,-0.088l-0.117,-0.088l0,-5.898l-2.083,-0.206c-0.177,-0.078 -0.333,-0.234 -0.47,-0.469l0,-0.47c0.137,-0.235 0.293,-0.391 0.47,-0.469l0.763,-0.118l-0.029,0l0.322,-0.125l0.793,-0.021c0.273,0 0.67,0.024 1.188,0.073c0.518,0.049 0.905,0.073 1.16,0.073c0.253,0 0.634,-0.024 1.144,-0.073c0.508,-0.049 0.89,-0.073 1.144,-0.073c1.604,0 2.885,0.478 3.844,1.434l0,0.439Z" style="fill:#231f20;fill-rule:nonzero;stroke:#231f20;stroke-width:0.48px;"/><path d="M219.073,98.609l0,-0.205l0,0.205Zm0.676,0.47l-0.647,0c0,0.019 -0.009,0.019 -0.029,0c-0.392,0 -0.675,-0.179 -0.851,-0.538l0,-0.227c0,-0.151 0.03,-0.321 0.088,-0.51c0.451,-0.226 0.783,-0.34 0.998,-0.34l1.849,0.03c0.195,0 0.474,0.015 0.836,0.044c0.362,0.029 0.631,0.044 0.808,0.044c0.018,0.137 0.126,0.303 0.322,0.499l0,0.675c-0.431,0.313 -0.997,0.45 -1.702,0.411l-0.088,0.147l0,2.171c0.097,0.137 0.146,0.245 0.146,0.323c0,0.117 -0.068,0.235 -0.205,0.352c-0.039,0.157 -0.088,0.303 -0.146,0.44l-0.088,0.059l0,1.79c-0.02,0.019 -0.03,0.049 -0.03,0.088c0,0.117 -0.069,0.245 -0.206,0.381l0,1.321l-0.234,0.117l0,3.756l-0.167,0.177c-0.021,0.215 -0.066,0.41 -0.133,0.587l-0.199,0.205l0,0.058c0.02,0.196 -0.156,0.421 -0.528,0.676l-0.176,0c-0.411,0 -0.9,-0.137 -1.468,-0.412c-0.058,-0.117 -0.176,-0.273 -0.351,-0.469c-0.02,-0.176 -0.059,-0.352 -0.118,-0.528l-0.206,-0.147l0,-0.939c-0.175,-0.234 -0.254,-0.626 -0.234,-1.174c-0.176,-0.234 -0.255,-0.635 -0.235,-1.203l-0.176,-0.146l-0.117,-0.822l-0.176,-0.117l0,-1.057l-0.177,-0.147l-0.117,-0.821l0.059,0.029l-0.176,-0.264l-0.03,-0.147l0,1.233l-0.205,0.117l-0.118,0.675l-0.146,0.147l0,1.232l-0.235,0.117l0,1.761l-0.235,0.118l0,0.909l-0.146,0.088l-0.176,0.558l0.088,-0.059c-0.02,0.216 -0.069,0.46 -0.147,0.734l-0.117,0.088c-0.04,0.157 -0.108,0.333 -0.206,0.528l-1.614,0c-0.098,-0.039 -0.362,-0.205 -0.792,-0.499l0,-0.939c-0.196,-0.176 -0.264,-0.371 -0.205,-0.587l-0.03,-0.029c0,-0.509 -0.04,-1.237 -0.117,-2.186c-0.079,-0.949 -0.118,-1.668 -0.118,-2.157c-0.195,-0.294 -0.293,-1.262 -0.293,-2.905c-0.138,-0.313 -0.196,-0.724 -0.176,-1.233l-0.264,-0.117l0,-1.585c-0.333,-0.059 -0.763,-0.146 -1.291,-0.264l-0.294,-0.206l0,-1.027c0.489,-0.253 0.841,-0.381 1.056,-0.381l1.878,0.028c0.685,0 1.154,0.076 1.409,0.226c0.332,0.207 0.558,0.622 0.675,1.243l-1.731,0l0,1.122c0.117,0.217 0.175,0.552 0.175,1.004c-0.117,0.059 -0.175,0.099 -0.175,0.118l0.029,0.059c0.117,0.217 0.186,0.887 0.205,2.009c0.137,0.237 0.216,0.906 0.235,2.009c0.137,0.236 0.215,0.797 0.235,1.684c0.117,0.177 0.185,0.512 0.206,1.004l0.058,-0.323l0.118,-0.147l0.146,-0.851l0.147,-0.117l0,-0.998l0.235,-0.117l0,-1.115l0.205,-0.059l0.147,-0.793l0.147,-0.117l0,-0.968l0.176,-0.118c0.019,-0.235 0.068,-0.469 0.146,-0.704l0.117,-0.117c0.098,-0.254 0.284,-0.46 0.558,-0.617l0.382,-0.029c0.332,0 0.821,0.225 1.467,0.675l0,0.998c0.118,0.196 0.185,0.675 0.206,1.437c0.117,0.118 0.205,0.246 0.263,0.382l0.147,0.147c0.137,0.509 0.333,1.281 0.587,2.318l0.206,0.147l0,-0.147l0.205,-0.117l0,-1.938l-0.147,-0.147l0.411,-0.264l0,-1.087l0.235,-0.118l0,-2.185l-0.176,-0.148l0.41,-0.266l0,-1.506l0.148,0Z" style="fill:#231f20;fill-rule:nonzero;stroke:#231f20;stroke-width:0.48px;"/><path d="M234.685,110.258l0,0.059l0.117,-0.059l-0.117,0Zm-3.022,-5.252c0.057,-0.079 0.164,-0.176 0.319,-0.292c0.406,0 0.842,-0.146 1.307,-0.438c0.464,-0.291 0.726,-0.622 0.784,-0.993l0.145,-0.146c0.038,-0.116 0.068,-0.243 0.087,-0.379l0.146,-0.175l0,-0.818l-0.145,-0.174l-0.087,-0.555l-0.144,-0.146c0,-0.155 -0.02,-0.301 -0.059,-0.438l-0.173,-0.058l-0.202,-0.176l-0.376,-0.116c-0.077,-0.097 -0.236,-0.209 -0.476,-0.336c-0.242,-0.126 -0.429,-0.19 -0.564,-0.19l-2.572,0c-0.347,0 -0.665,0.03 -0.954,0.089c0.039,0.587 0.051,1.839 0.039,3.756c0.051,0.176 0.078,0.352 0.078,0.528l-0.117,0.118l0,0.557l0.645,0c0.998,0 1.771,0.059 2.319,0.176l0,0.206Zm-3.169,0.792l0.117,-0.059c-0.04,-0.019 -0.088,-0.039 -0.147,-0.059l0,0.03c0,0.02 0.009,0.049 0.03,0.088Zm6.719,-6.05l0.382,0.117c0.059,0.196 0.156,0.342 0.293,0.439c0.02,0.137 0.098,0.254 0.234,0.352l0.06,0.351l0.205,0.176l0,2.078c-0.137,0.137 -0.225,0.332 -0.265,0.586c-0.058,0.058 -0.146,0.195 -0.263,0.41c-0.117,0.097 -0.195,0.205 -0.235,0.322c-0.744,0.781 -1.545,1.249 -2.406,1.405c0.151,0 0.272,0.156 0.366,0.468c0.508,0.489 0.809,0.928 0.904,1.318l0.14,0.117c0.038,0.176 0.057,0.351 0.057,0.527l0,0.527c0.098,0.488 0.137,0.888 0.117,1.2l0.088,0.058l0.441,0.089c0.43,-0.078 0.684,-0.118 0.762,-0.118c0.685,0.333 1.028,0.705 1.028,1.115l-0.088,0.499c-0.49,0.118 -0.822,0.176 -0.998,0.176l-1.878,0.029c-0.098,0 -0.264,-0.097 -0.499,-0.293c-0.039,-0.156 -0.118,-0.264 -0.235,-0.323c-0.019,-0.117 -0.107,-0.273 -0.264,-0.469l0,-0.587l0.118,-0.176l0,-0.059l-0.177,-0.616c-0.137,-0.118 -0.195,-0.293 -0.176,-0.528l0.117,-0.177l0,-0.058l-0.175,-0.411l-0.176,-0.205l-0.088,-0.558l0.029,0.029c-0.274,-0.344 -0.734,-0.689 -1.38,-1.034l0.382,-0.345l-0.264,0l0,-0.176l-0.201,0.176l-2.469,0l0,4.226l1.715,0l0.315,0.206c0.134,0.175 0.21,0.352 0.229,0.527l-0.087,0.294c-0.275,0.352 -0.519,0.528 -0.735,0.528l-4.9,0.118c-0.254,0.019 -0.529,-0.118 -0.822,-0.411l-0.058,-0.47l0.058,-0.469c0.386,-0.391 1.238,-0.548 2.553,-0.47l0,-0.117l0,-0.294l0,-0.029l0,-3.991l0.117,-0.088l-0.117,-0.088l0,-5.898l-2.083,-0.206c-0.177,-0.078 -0.333,-0.234 -0.47,-0.469l0,-0.47c0.137,-0.235 0.293,-0.391 0.47,-0.469l0.763,-0.118l-0.029,0l0.322,-0.125l0.793,-0.021c0.273,0 0.67,0.024 1.188,0.073c0.518,0.049 0.905,0.073 1.16,0.073c0.253,0 0.634,-0.024 1.144,-0.073c0.508,-0.049 0.89,-0.073 1.144,-0.073c1.604,0 2.885,0.478 3.844,1.434l0,0.439Z" style="fill:#231f20;fill-rule:nonzero;stroke:#231f20;stroke-width:0.48px;"/><path d="M250.677,111.491l0.029,0.264l0.059,-0.03l-0.029,0.03l-0.235,0.382l-0.411,0.234c-0.743,0 -1.863,0.015 -3.359,0.044c-1.497,0.03 -2.608,0.044 -3.331,0.044l-1.409,0.03c-0.157,0 -0.48,-0.069 -0.968,-0.206l-0.088,-0.558l0.058,-0.41c0.215,-0.352 0.459,-0.597 0.734,-0.734l3.169,0c0,-3.287 0.019,-6.387 0.059,-9.302l0.176,-0.118l0,-1.35l-0.029,0c-0.333,0.02 -0.852,0.064 -1.556,0.133c-0.704,0.068 -1.232,0.102 -1.584,0.102l-1.967,0l0.529,-0.528l-0.235,-0.235c0.313,-0.195 0.508,-0.323 0.587,-0.381c0.215,-0.176 0.352,-0.362 0.41,-0.558c0.568,-0.215 1.322,-0.323 2.26,-0.323c0.215,0 0.528,0.04 0.94,0.118c0.41,0.078 0.723,0.117 0.938,0.117c0.156,0 0.377,-0.039 0.66,-0.117c0.284,-0.078 0.504,-0.118 0.661,-0.118c0.332,0 0.606,0.04 0.822,0.118l0.939,0c0.763,0 1.467,0.078 2.112,0.234l0,0.411c-0.117,0.294 -0.215,0.587 -0.293,0.881c-0.254,0.274 -1.458,0.381 -3.609,0.323l0,0.79c0.077,0.195 0.117,0.507 0.117,0.936c-0.079,0.059 -0.117,0.098 -0.117,0.117c0,0.742 0.019,1.873 0.059,3.395c0.039,1.522 0.058,2.654 0.058,3.394l-0.117,0.118l0,0.497l0.117,0.175l0,0.469l-0.117,0.146l0,0.497c0.391,0.04 0.654,0.059 0.792,0.059l1.702,0c0.196,-0.097 0.401,-0.147 0.616,-0.147c0.411,0 0.695,0.225 0.851,0.675c0.117,0.098 0.177,0.225 0.177,0.382l-0.177,0Z" style="fill:#231f20;fill-rule:nonzero;stroke:#231f20;stroke-width:0.48px;"/><path d="M265.438,99.665c-0.172,-0.02 -0.279,-0.029 -0.322,-0.029l0.225,0.146l0.097,-0.029l0,-0.088Zm-1.467,12.208l-1.79,0l0.059,0c-0.881,0.097 -2.319,0.146 -4.314,0.146c-0.04,0 -0.058,-0.01 -0.058,-0.029l-1.439,-0.117l-0.675,-0.675l0.763,-0.411l2.759,0l0,-8.342l0.117,-0.059l-0.117,-0.087l0,-0.352l0.176,-0.204l-0.176,-0.118l0,-1.434l0.205,-0.263c-0.098,-0.137 -0.156,-0.322 -0.176,-0.556c-0.234,0 -0.704,0.014 -1.408,0.043c-0.607,0.03 -1.086,0.044 -1.438,0.044l-0.147,0.177c0.059,0.098 0.088,0.215 0.088,0.352l0,1.496l-0.117,0.118l0,0.088l0.117,0.176c0,0.195 -0.039,0.342 -0.117,0.44l0,0.029l-0.176,-0.029l0.098,0.117l0.129,0.177l0.066,0.41l-0.053,0.382l-0.16,0.293l-0.08,0.734l-0.528,0c-0.294,-0.137 -0.539,-0.323 -0.735,-0.558l0,-4.754c0.255,-0.176 0.558,-0.43 0.91,-0.763l3.639,0.029c0.215,0 0.533,0.021 0.954,0.06c0.42,0.039 0.738,0.058 0.953,0.058l-0.029,0.117c0.158,-0.039 0.385,-0.127 0.68,-0.264l0.236,0c0.079,0 0.183,0.02 0.311,0.059c0.127,0.039 0.221,0.059 0.281,0.059l0.206,0.117c0.197,-0.156 0.345,-0.235 0.443,-0.235l1.154,0c0.157,0 0.442,0.089 0.856,0.264l0,1.057l0.059,0.029l-0.059,0.059l0,0.235c0,0.078 0.018,0.2 0.053,0.366c0.035,0.167 0.052,0.279 0.052,0.338l0.16,0.147l0,2.67c0,0.352 -0.058,0.695 -0.173,1.027l-0.837,0c-0.115,0 -0.326,-0.088 -0.634,-0.264c0,-0.606 -0.016,-1.408 -0.046,-2.406c-0.029,-0.998 -0.045,-1.829 -0.045,-2.494l-0.724,0l-0.725,0c-0.342,0 -0.795,-0.186 -1.358,-0.558l-0.121,0.352l-0.121,0.117l0,5.576l-0.058,0.058l0.058,0.06l0,0.527l-0.058,0.059l0.058,0.059l0,1.438l0.235,0.176l0,0.528l-0.235,0.117l0,2.847c0.741,0.079 1.534,0.108 2.377,0.088l0,-0.029l0.529,0c0.156,0 0.429,0.156 0.821,0.469l-0.675,0.617Z" style="fill:#231f20;fill-rule:nonzero;stroke:#231f20;stroke-width:0.48px;"/><path d="M275.533,104.419l-0.147,-0.151l0,-1.239l0.149,-0.151c0.06,-0.142 0.149,-0.302 0.269,-0.484l0.598,0c0.119,0 0.328,0.117 0.627,0.352l0,3.17l0,-0.03l0.205,0.323l0,0.499l-0.205,0.323l-0.059,0.704c-0.274,0.196 -0.625,0.284 -1.056,0.264c-0.195,-0.118 -0.372,-0.264 -0.528,-0.44l0,-1.468l-2.29,0l0,4.666l0.351,0.059l4.319,0c0.253,0 0.477,-0.009 0.671,-0.029l0,-0.91l0.294,-0.117l0,-1.292l0.205,-0.117l0,-1.086l1.322,0c0.175,0.098 0.332,0.245 0.468,0.441l0.059,-0.265l0,0.323l-0.059,-0.058c-0.078,0.626 -0.146,1.105 -0.205,1.438l0.264,0.205l-0.41,0.264l0,1.496l-0.117,0.03l0.117,0.059l0,0.792c-0.374,0.235 -1.043,0.371 -2.006,0.411c-0.708,0.019 -1.426,0.029 -2.153,0.029c-0.571,0.019 -0.934,0.078 -1.091,0.176l-5.545,0c-0.099,0 -0.355,-0.176 -0.767,-0.528l-0.059,-0.528l0.058,-0.47l0.499,-0.264l2.055,0l0,-10.682l-2.113,0c-0.176,-0.156 -0.324,-0.332 -0.441,-0.527l0,-0.47c0.117,-0.156 0.254,-0.313 0.411,-0.47l0.293,-0.176c0.47,0 1.169,-0.014 2.099,-0.044c0.929,-0.029 1.629,-0.044 2.098,-0.044l2.671,0l3.227,0.088l0.528,0.44l0,1.262c0.131,0.235 0.209,0.998 0.236,2.289c-0.28,0.196 -0.559,0.293 -0.837,0.293c-0.279,0 -0.479,-0.125 -0.598,-0.377l-0.209,-0.145l0,-2.265l-5.84,0.146c0.039,0.398 0.069,1.201 0.088,2.41l-0.088,0.09l0.088,0.118l0,0.625l-0.117,0.179l0.234,0.09l0,0.773l2.437,0Z" style="fill:#231f20;fill-rule:nonzero;stroke:#231f20;stroke-width:0.48px;"/><path d="M293.463,110.258l0,0.059l0.117,-0.059l-0.117,0Zm-3.022,-5.252c0.057,-0.079 0.164,-0.176 0.319,-0.292c0.406,0 0.842,-0.146 1.307,-0.438c0.464,-0.291 0.726,-0.622 0.784,-0.993l0.145,-0.146c0.038,-0.116 0.068,-0.243 0.087,-0.379l0.146,-0.175l0,-0.818l-0.145,-0.174l-0.087,-0.555l-0.144,-0.146c0,-0.155 -0.02,-0.301 -0.059,-0.438l-0.173,-0.058l-0.202,-0.176l-0.376,-0.116c-0.077,-0.097 -0.236,-0.209 -0.476,-0.336c-0.242,-0.126 -0.429,-0.19 -0.564,-0.19l-2.572,0c-0.347,0 -0.665,0.03 -0.954,0.089c0.039,0.587 0.051,1.839 0.039,3.756c0.051,0.176 0.078,0.352 0.078,0.528l-0.117,0.118l0,0.557l0.645,0c0.998,0 1.771,0.059 2.319,0.176l0,0.206Zm-3.169,0.792l0.117,-0.059c-0.04,-0.019 -0.088,-0.039 -0.147,-0.059l0,0.03c0,0.02 0.009,0.049 0.03,0.088Zm6.719,-6.05l0.382,0.117c0.059,0.196 0.156,0.342 0.293,0.439c0.02,0.137 0.098,0.254 0.234,0.352l0.06,0.351l0.205,0.176l0,2.078c-0.137,0.137 -0.225,0.332 -0.265,0.586c-0.058,0.058 -0.146,0.195 -0.263,0.41c-0.117,0.097 -0.195,0.205 -0.235,0.322c-0.744,0.781 -1.545,1.249 -2.406,1.405c0.151,0 0.272,0.156 0.366,0.468c0.508,0.489 0.809,0.928 0.904,1.318l0.14,0.117c0.038,0.176 0.057,0.351 0.057,0.527l0,0.527c0.098,0.488 0.137,0.888 0.117,1.2l0.088,0.058l0.441,0.089c0.43,-0.078 0.684,-0.118 0.762,-0.118c0.685,0.333 1.028,0.705 1.028,1.115l-0.088,0.499c-0.49,0.118 -0.822,0.176 -0.998,0.176l-1.878,0.029c-0.098,0 -0.264,-0.097 -0.499,-0.293c-0.039,-0.156 -0.118,-0.264 -0.235,-0.323c-0.019,-0.117 -0.107,-0.273 -0.264,-0.469l0,-0.587l0.118,-0.176l0,-0.059l-0.177,-0.616c-0.137,-0.118 -0.195,-0.293 -0.176,-0.528l0.117,-0.177l0,-0.058l-0.175,-0.411l-0.176,-0.205l-0.088,-0.558l0.029,0.029c-0.274,-0.344 -0.734,-0.689 -1.38,-1.034l0.382,-0.345l-0.264,0l0,-0.176l-0.201,0.176l-2.469,0l0,4.226l1.715,0l0.315,0.206c0.134,0.175 0.21,0.352 0.229,0.527l-0.087,0.294c-0.275,0.352 -0.519,0.528 -0.735,0.528l-4.9,0.118c-0.254,0.019 -0.529,-0.118 -0.822,-0.411l-0.058,-0.47l0.058,-0.469c0.386,-0.391 1.238,-0.548 2.553,-0.47l0,-0.117l0,-0.294l0,-0.029l0,-3.991l0.117,-0.088l-0.117,-0.088l0,-5.898l-2.083,-0.206c-0.177,-0.078 -0.333,-0.234 -0.47,-0.469l0,-0.47c0.137,-0.235 0.293,-0.391 0.47,-0.469l0.763,-0.118l-0.029,0l0.322,-0.125l0.793,-0.021c0.273,0 0.67,0.024 1.188,0.073c0.518,0.049 0.905,0.073 1.16,0.073c0.253,0 0.634,-0.024 1.144,-0.073c0.508,-0.049 0.89,-0.073 1.144,-0.073c1.604,0 2.885,0.478 3.844,1.434l0,0.439Z" style="fill:#231f20;fill-rule:nonzero;stroke:#231f20;stroke-width:0.48px;"/><path d="M301.972,100.751l0.088,1.644c0.098,0.117 0.215,0.264 0.351,0.439c0.509,0.255 0.989,0.48 1.439,0.676c1.564,0.019 3.042,0.41 4.431,1.174c0.039,0.156 0.283,0.45 0.733,0.88l0.089,0.587l-0.029,-0.029l0.175,0.263l0.059,0.235l0.205,0.176l0,2.23c-0.098,0.196 -0.225,0.382 -0.381,0.558l-0.147,0.558c-0.332,0.215 -0.685,0.518 -1.056,0.909c-0.294,0.098 -0.558,0.225 -0.793,0.382l-0.293,0.059c-0.294,0.293 -0.891,0.44 -1.79,0.44c0.234,0 -0.479,-0.088 -2.143,-0.264c-0.136,-0.078 -0.342,-0.206 -0.616,-0.382c-0.372,-0.137 -0.557,-0.332 -0.557,-0.587l-0.059,0.177c-0.137,-0.196 -0.352,-0.441 -0.645,-0.734l0,0.704l-0.264,0.352l0.058,-0.029l-0.206,0.293c-0.214,0.137 -0.508,0.294 -0.879,0.47l-0.529,0c-0.019,-0.157 -0.039,-0.304 -0.058,-0.44c-0.02,-0.137 -0.088,-0.235 -0.205,-0.294l0,-0.939l0.146,-0.205l0.088,-0.382l0.176,-0.234l0,-0.118c0,-0.137 0.019,-0.323 0.058,-0.558l0.177,-0.146l0,-2.641l0.569,-0.265l0.513,0c0.266,0.216 0.437,0.431 0.513,0.646c0.076,0.059 0.189,0.206 0.342,0.44l0,0.998l0.117,0.118c0.039,0.136 0.195,0.332 0.469,0.587c0.04,0.195 0.166,0.386 0.381,0.571c0.216,0.187 0.421,0.299 0.618,0.338l0.205,0.176c0.195,0.059 0.459,0.157 0.792,0.293l0.029,0c1.174,0 2.094,-0.156 2.759,-0.469l0.116,-0.441c0.039,-0.039 0.186,-0.205 0.441,-0.498l-0.058,0.03c0.05,-0.137 0.108,-0.245 0.175,-0.324l0,-1.32c-0.097,-0.156 -0.175,-0.312 -0.233,-0.47c-0.312,-0.332 -0.575,-0.562 -0.789,-0.689c-0.215,-0.127 -0.634,-0.21 -1.257,-0.25c-0.702,-0.039 -1.17,-0.097 -1.403,-0.175c-0.546,-0.196 -1.18,-0.353 -1.901,-0.47l-0.146,-0.117c-0.351,-0.079 -0.564,-0.255 -0.643,-0.529l-0.614,-0.587l-0.087,-0.352l-0.146,-0.147c-0.02,-0.254 -0.049,-0.44 -0.088,-0.557l-0.147,-0.176l0,-1.761c0.119,-0.078 0.197,-0.303 0.236,-0.675l0.146,-0.147c0.039,-0.117 0.069,-0.244 0.088,-0.381l0.411,-0.323c0.157,-0.528 0.626,-0.968 1.408,-1.32c0.665,-0.294 1.322,-0.44 1.967,-0.44c0.508,0 1.056,0.107 1.643,0.322l0.089,0.088c0.293,0.079 0.508,0.231 0.645,0.455c0.137,0.225 0.244,0.338 0.322,0.338l0.03,-0.03l0.146,-0.645c0.411,-0.274 0.753,-0.411 1.028,-0.411l0.411,0.088c0.078,0.176 0.195,0.352 0.352,0.528l0,1.262c-0.157,0.117 -0.255,0.245 -0.294,0.382l-0.117,0.117l0,2.201c-0.196,0.196 -0.47,0.381 -0.822,0.557l-0.264,0c-0.352,0 -0.636,-0.107 -0.85,-0.323l0,-0.997l-0.177,-0.147c-0.02,-0.215 -0.049,-0.401 -0.088,-0.557l0.029,0c-0.078,-0.157 -0.274,-0.401 -0.587,-0.734c-0.801,-0.294 -1.31,-0.44 -1.525,-0.44c-0.392,0 -0.988,0.146 -1.79,0.44c-0.099,0.098 -0.167,0.245 -0.206,0.44c-0.137,0.059 -0.205,0.147 -0.205,0.264l-0.176,0.264Z" style="fill:#231f20;fill-rule:nonzero;stroke:#231f20;stroke-width:0.48px;"/><path d="M43.795,50.29l0.327,0.327l-0.588,0.588l0,2.092l0.392,0.196l8.693,0l0.718,0.45l0.458,0.707l0,1.737c-0.349,0.129 -0.59,0.492 -0.721,1.092c-2.403,0 -6.029,0.099 -10.879,0.295c-4.85,0.196 -8.477,0.294 -10.879,0.294c-0.481,0 -1.028,-0.218 -1.639,-0.653l0,-2.876l0.987,-1.046l6.446,0c0.263,0 0.591,0.088 0.986,0.261c0.395,-0.043 1.009,-0.108 1.842,-0.196c0,-0.043 0.021,-0.087 0.065,-0.131c0.044,-0.043 0.066,-0.086 0.066,-0.13l-0.065,-0.196l-0.261,-0.327l0,-7.451l0,-0.392l0,-0.392l0,-12.68l0.261,-0.327l0,-0.392l0,-0.262c-0.653,-0.173 -1.853,-0.261 -3.595,-0.261c-0.392,0 -1.003,0.044 -1.83,0.131c-0.828,0.087 -1.438,0.13 -1.83,0.13c-2.048,0 -3.072,-0.696 -3.072,-2.091l0.066,-0.719l1.503,-1.504l0.653,0c0.218,0 0.545,0.044 0.981,0.131c0.435,0.088 0.762,0.131 0.98,0.131c0.393,-0.174 0.697,-0.262 0.915,-0.262l3.595,0.066c1.35,0 2.636,0.196 3.857,0.588c0.304,0.261 0.653,0.567 1.045,0.915l0,2.026l-0.719,0.523l0.654,0.588l0.196,1.242l0.392,0.458l0,1.634l-0.261,0.327l0,0.784l-0.262,-0.066l0.523,0.72l0,3.986l-0.261,0.458l0.261,0.327l0,2.614l-0.261,0.458l0,1.176l0.044,-0.065c0.145,0.392 0.217,0.784 0.217,1.176l-0.261,0.262l0,2.156l0.261,0.393l0,0.98Z" style="fill:#fff;fill-rule:nonzero;"/><path d="M131.032,41.93l0.194,1.17l6.669,0l0,3.19l-1.101,0.797l-5.762,0l0,0.262c0,0.174 -0.065,0.414 -0.196,0.719l0,4.117l0.458,0.654l-0.262,0.261l0,3.334c-0.253,0.436 -0.59,0.784 -1.011,1.045l-0.949,0.131l-0.947,-0.129c-0.422,-0.261 -0.739,-0.607 -0.949,-1.04l0,-4.807l0.196,-0.194c-0.131,-0.346 -0.196,-0.65 -0.196,-0.91l0.196,-0.39l0,-0.714c-0.35,-0.779 -0.394,-1.559 -0.132,-2.339l-1.804,0l-1.871,0l-10.175,0l-1.05,-0.485c-0.044,-0.243 -0.109,-0.647 -0.197,-1.214l0.719,0l-0.523,-0.131l-0.131,0l-0.065,0l0,-0.196l0.131,-1.111c0.261,-0.348 0.523,-0.653 0.784,-0.915c0.043,-0.392 0.174,-0.871 0.392,-1.438c0.262,-0.13 0.393,-0.327 0.393,-0.588l0.392,-0.588l0.13,-1.112c0.131,-0.173 0.305,-0.565 0.523,-1.176l0.327,-0.262l0.196,-1.307l0.327,-0.261c0.086,-0.348 0.152,-0.893 0.196,-1.634l0.327,-0.261l0.261,-1.765l-0.065,-0.523l0.196,-0.523l0.261,-0.13l0,-2.158l0.654,-0.261l0,-5.49l0,-0.065l0,-2.68l0.261,-0.327c0.174,-0.697 0.741,-1.046 1.7,-1.046c0.653,0 1.263,0.219 1.83,0.654c0.043,0.087 0.283,0.436 0.719,1.045l0,1.373l-0.392,0.392l0,5.555l-0.458,0.261l0,4.053l-0.658,0.196l-0.126,0.85l-0.262,0.325l-0.261,1.752l-0.327,0.389c-0.088,0.304 -0.153,0.629 -0.196,0.974l-0.392,0.65l-0.131,1.232l-0.327,0.325c-0.087,0.259 -0.153,0.627 -0.196,1.103c-0.218,0.39 -0.501,0.757 -0.849,1.104c-0.044,0.433 -0.154,0.908 -0.327,1.427l-0.065,0l10.065,0l0,-0.774l0.039,-0.841l0.157,-0.194l0,-1.422c-0.131,-0.43 -0.196,-0.839 -0.196,-1.228l0.049,-0.904l0.098,-0.323c0,-0.043 0.016,-0.043 0.049,0l-0.147,-0.653l-0.049,-0.654l0.056,-0.654l0.112,-0.327l0.028,-0.13l-0.066,-0.327l-0.653,-0.654l0.719,-0.719c0.087,-0.304 0.152,-0.871 0.196,-1.699c0.915,-0.348 1.568,-0.523 1.961,-0.523l0.327,0l1.176,0.585l0,9.622l0.327,0.324l-0.327,0.325Z" style="fill:#fff;fill-rule:nonzero;"/><path d="M223.05,38.125l0.653,0.523l0,5.49c-0.131,0.131 -0.436,0.578 -0.915,1.34c-0.48,0.763 -0.741,1.209 -0.784,1.34l-0.327,0.327c-0.044,0.218 -0.088,0.48 -0.131,0.784l-0.392,0.327c-0.043,0.219 -0.109,0.48 -0.196,0.784c-0.522,0.35 -1.699,1.46 -3.529,3.334c-1.483,1.524 -2.789,2.418 -3.922,2.679c-2.964,2.876 -6.667,4.314 -11.111,4.314c-1.307,0 -2.114,-0.48 -2.418,-1.438l-0.588,-0.588c0.611,-0.959 1.769,-1.678 3.474,-2.157c1.443,-0.262 2.885,-0.523 4.328,-0.784l0.197,-0.262c1.66,-0.523 3.759,-1.743 6.294,-3.66c2.797,-2.134 4.283,-3.812 4.459,-5.033l0.918,-0.718c0.043,-0.305 0.196,-0.654 0.458,-1.046c0.088,-0.654 0.175,-1.264 0.262,-1.83l0.263,-0.196l0,-1.765c-0.306,-0.523 -0.482,-1.023 -0.525,-1.503l-1.705,-1.7c-0.7,0 -1.357,-0.108 -1.969,-0.327l-0.131,-0.195l-0.59,0c-1.051,0 -2.581,0.174 -4.593,0.522c-2.406,0.35 -3.718,0.742 -3.937,1.177c-0.656,0.261 -1.269,0.392 -1.837,0.392c-0.307,0 -0.962,-0.284 -1.968,-0.853l0,-8.924l0,-0.394l0,-0.394l0,-4.658c0.305,-0.262 0.5,-0.678 0.588,-1.247c0.654,0 1.602,-0.033 2.844,-0.098c1.241,-0.065 2.167,-0.099 2.777,-0.099l5.098,0c0.262,0.175 0.545,0.349 0.851,0.523l1.11,-0.523c0.262,0 0.664,-0.043 1.21,-0.131c0.544,-0.086 0.947,-0.13 1.209,-0.13c0.217,0 1.611,0.326 4.182,0.98l0,1.699c-0.174,0.131 -0.391,0.502 -0.653,1.112l-1.046,0.523l-6.274,0c-0.306,0 -0.763,-0.055 -1.373,-0.164c-0.611,-0.108 -1.069,-0.164 -1.372,-0.164c-0.698,0 -1.591,0.044 -2.68,0.131c-1.396,0.131 -2.288,0.197 -2.68,0.197l0,8.104c2.571,-0.915 4.902,-1.372 6.993,-1.372c0.393,0 1.22,0.195 2.484,0.588c1.264,0.392 1.982,0.676 2.157,0.85c1.089,0.174 2.157,0.61 3.202,1.307c0.131,0.305 0.72,0.98 1.766,2.026c0,0.305 -0.044,0.632 -0.131,0.98" style="fill:#fff;fill-rule:nonzero;"/><path d="M310.738,38.125l0.653,0.523l0,5.49c-0.131,0.131 -0.436,0.578 -0.915,1.34c-0.48,0.763 -0.741,1.209 -0.784,1.34l-0.327,0.327c-0.044,0.218 -0.088,0.48 -0.131,0.784l-0.392,0.327c-0.043,0.219 -0.109,0.48 -0.196,0.784c-0.522,0.35 -1.699,1.46 -3.529,3.334c-1.483,1.524 -2.789,2.418 -3.922,2.679c-2.964,2.876 -6.667,4.314 -11.111,4.314c-1.307,0 -2.114,-0.48 -2.418,-1.438l-0.588,-0.588c0.611,-0.959 1.769,-1.678 3.474,-2.157c1.443,-0.262 2.885,-0.523 4.328,-0.784l0.197,-0.262c1.66,-0.523 3.759,-1.743 6.294,-3.66c2.797,-2.134 4.283,-3.812 4.459,-5.033l0.918,-0.718c0.043,-0.305 0.196,-0.654 0.458,-1.046c0.088,-0.654 0.175,-1.264 0.262,-1.83l0.263,-0.196l0,-1.765c-0.306,-0.523 -0.482,-1.023 -0.525,-1.503l-1.705,-1.7c-0.7,0 -1.357,-0.108 -1.969,-0.327l-0.131,-0.195l-0.59,0c-1.051,0 -2.581,0.174 -4.593,0.522c-2.406,0.35 -3.718,0.742 -3.937,1.177c-0.656,0.261 -1.269,0.392 -1.837,0.392c-0.307,0 -0.962,-0.284 -1.968,-0.853l0,-8.924l0,-0.394l0,-0.394l0,-4.658c0.305,-0.262 0.5,-0.678 0.588,-1.247c0.654,0 1.602,-0.033 2.844,-0.098c1.241,-0.065 2.167,-0.099 2.777,-0.099l5.098,0c0.262,0.175 0.545,0.349 0.851,0.523l1.11,-0.523c0.262,0 0.664,-0.043 1.21,-0.131c0.544,-0.086 0.947,-0.13 1.209,-0.13c0.217,0 1.611,0.326 4.182,0.98l0,1.699c-0.174,0.131 -0.391,0.502 -0.653,1.112l-1.046,0.523l-6.274,0c-0.306,0 -0.763,-0.055 -1.373,-0.164c-0.611,-0.108 -1.069,-0.164 -1.372,-0.164c-0.698,0 -1.591,0.044 -2.68,0.131c-1.396,0.131 -2.288,0.197 -2.68,0.197l0,8.104c2.571,-0.915 4.902,-1.372 6.993,-1.372c0.393,0 1.22,0.195 2.484,0.588c1.264,0.392 1.982,0.676 2.157,0.85c1.089,0.174 2.157,0.61 3.202,1.307c0.131,0.305 0.72,0.98 1.766,2.026c0,0.305 -0.044,0.632 -0.131,0.98" style="fill:#fff;fill-rule:nonzero;"/></g></svg>